<svg xmlns="http://www.w3.org/2000/svg" viewBox="0 0 64 64" width="64" height="64">
  <defs>
    <linearGradient id="g" x1="0" y1="0" x2="1" y2="1">
      <stop offset="0%" stop-color="#4f46e5" stop-opacity="0.9"/>
      <stop offset="100%" stop-color="#14b8a6" stop-opacity="0.9"/>
    </linearGradient>
    <filter id="s" x="-20%" y="-20%" width="140%" height="140%">
      <feDropShadow dx="0" dy="2" stdDeviation="2" flood-color="#000" flood-opacity="0.15"/>
    </filter>
  </defs>
  <rect x="4" y="4" width="56" height="56" rx="14" ry="14" fill="url(#g)" filter="url(#s)"/>
  <g fill="#fff">
    <circle cx="32" cy="24" r="6"/>
    <path d="M32 34c-8 0-14 5-14 11 0 1 .8 2 2 2h24c1.2 0 2-.9 2-2 0-6-6-11-14-11z"/>
    <path d="M32 8c-10 0-18 8-18 18 0 10 12 24 18 30 6-6 18-20 18-30 0-10-8-18-18-18zm0 4c7.7 0 14 6.3 14 14 0 6.6-7.8 17-14 23-6.2-6-14-16.4-14-23 0-7.7 6.3-14 14-14z" opacity="0.9"/>
  </g>
</svg>


